<svg id="nopeMarkSvg" xmlns="http://www.w3.org/2000/svg" viewBox="0 0 600 600">
  <title>noppeee</title>
  <g id="Layer_2" data-name="Layer 2">
    <g id="Layer_1-2" data-name="Layer 1">
      <rect width="600" height="600"/>
      <g id="cable">
        <path d="M521.2,378.6h0a5.23,5.23,0,0,1-5.2-5.2v-8a5.23,5.23,0,0,1,5.2-5.2h0a5.23,5.23,0,0,1,5.2,5.2v8A5.23,5.23,0,0,1,521.2,378.6Z" fill="#fbcccc" stroke="#fbcccc" stroke-miterlimit="10"/>
        <line x1="521.2" y1="506.4" x2="521.2" y2="369.4" fill="#fbcccc" stroke="#fbcccc" stroke-miterlimit="10" stroke-width="4"/>
      </g>
      <g id="rightPhone">
        <path d="M458.9,407.4a67.5,67.5,0,0,0,0-135Z" fill="#959a8f"/>
        <path d="M423.5,398V283.2a28.05,28.05,0,0,1,14-24.21,28.05,28.05,0,0,1,14,24.21V398a28.05,28.05,0,0,1-14,24.21A28.05,28.05,0,0,1,423.5,398Z" fill="#959a8f"/>
      </g>
      <g id="phonesLight">
        <path d="M421.12,422a23.75,23.75,0,0,0,6-.78,32.09,32.09,0,0,1-10-23.22V283.2a32.09,32.09,0,0,1,10-23.22,23.75,23.75,0,0,0-6-.78,24,24,0,0,0-24,24V398A24,24,0,0,0,421.12,422Z" fill="#fcd6d6"/>
        <path d="M179.16,422a23.75,23.75,0,0,1-6-.78,32.09,32.09,0,0,0,10-23.22V283.2a32.09,32.09,0,0,0-10-23.22,23.75,23.75,0,0,1,6-.78,24,24,0,0,1,24,24V398A24,24,0,0,1,179.16,422Z" fill="#fcd6d6"/>
      </g>
      <g id="leftPhone">
        <path d="M141.1,407.4a67.5,67.5,0,1,1,0-135Z" fill="#959a8f"/>
        <path d="M176.5,398V283.2a28.05,28.05,0,0,0-14-24.21,28.05,28.05,0,0,0-14,24.21V398a28.05,28.05,0,0,0,14,24.21A28.05,28.05,0,0,0,176.5,398Z" fill="#959a8f"/>
      </g>
      <path id="strap" d="M300.4,93.6h-.8c-98.1.4-178.3,77.7-183.5,174.6a75.51,75.51,0,0,1,25.3-4.3v1c6.7-81.7,75.3-146.1,158.6-146.3,83.3.2,151.8,64.6,158.6,146.3v-1a75.51,75.51,0,0,1,25.3,4.3C478.7,171.3,398.5,94,300.4,93.6Z" fill="#959a8f"/>
      <g id="nopeBoxes">
        <rect x="342" y="270.6" width="12" height="12" fill="#fbcccc" stroke="#fbcccc" stroke-miterlimit="10"/>
        <rect x="246" y="270.6" width="12" height="12" fill="#fbcccc" stroke="#fbcccc" stroke-miterlimit="10"/>
        <rect x="230" y="270.6" width="12" height="12" fill="#fbcccc" stroke="#fbcccc" stroke-miterlimit="10"/>
        <rect x="358" y="270.6" width="12" height="12" fill="#fbcccc" stroke="#fbcccc" stroke-miterlimit="10"/>
        <rect x="342" y="286.6" width="12" height="12" fill="#fbcccc" stroke="#fbcccc" stroke-miterlimit="10"/>
        <rect x="326" y="286.6" width="12" height="12" fill="#fbcccc" stroke="#fbcccc" stroke-miterlimit="10"/>
        <rect x="262" y="286.6" width="12" height="12" fill="#fbcccc" stroke="#fbcccc" stroke-miterlimit="10"/>
        <rect x="246" y="286.6" width="12" height="12" fill="#fbcccc" stroke="#fbcccc" stroke-miterlimit="10"/>
        <rect x="230" y="286.6" width="12" height="12" fill="#fbcccc" stroke="#fbcccc" stroke-miterlimit="10"/>
        <rect x="358" y="286.6" width="12" height="12" fill="#fbcccc" stroke="#fbcccc" stroke-miterlimit="10"/>
        <rect x="342" y="302.6" width="12" height="12" fill="#fbcccc" stroke="#fbcccc" stroke-miterlimit="10"/>
        <rect x="326" y="302.6" width="12" height="12" fill="#fbcccc" stroke="#fbcccc" stroke-miterlimit="10"/>
        <rect x="310" y="302.6" width="12" height="12" fill="#fbcccc" stroke="#fbcccc" stroke-miterlimit="10"/>
        <rect x="278" y="302.6" width="12" height="12" fill="#fbcccc" stroke="#fbcccc" stroke-miterlimit="10"/>
        <rect x="262" y="302.6" width="12" height="12" fill="#fbcccc" stroke="#fbcccc" stroke-miterlimit="10"/>
        <rect x="246" y="302.6" width="12" height="12" fill="#fbcccc" stroke="#fbcccc" stroke-miterlimit="10"/>
        <rect x="326" y="318.6" width="12" height="12" fill="#fbcccc" stroke="#fbcccc" stroke-miterlimit="10"/>
        <rect x="310" y="318.6" width="12" height="12" fill="#fbcccc" stroke="#fbcccc" stroke-miterlimit="10"/>
        <rect x="294" y="318.6" width="12" height="12" fill="#fbcccc" stroke="#fbcccc" stroke-miterlimit="10"/>
        <rect x="278" y="318.6" width="12" height="12" fill="#fbcccc" stroke="#fbcccc" stroke-miterlimit="10"/>
        <rect x="262" y="318.6" width="12" height="12" fill="#fbcccc" stroke="#fbcccc" stroke-miterlimit="10"/>
        <rect x="310" y="334.6" width="12" height="12" fill="#fbcccc" stroke="#fbcccc" stroke-miterlimit="10"/>
        <rect x="294" y="334.6" width="12" height="12" fill="#fbcccc" stroke="#fbcccc" stroke-miterlimit="10"/>
        <rect x="278" y="334.6" width="12" height="12" fill="#fbcccc" stroke="#fbcccc" stroke-miterlimit="10"/>
        <rect x="326" y="350.6" width="12" height="12" fill="#fbcccc" stroke="#fbcccc" stroke-miterlimit="10"/>
        <rect x="310" y="350.6" width="12" height="12" fill="#fbcccc" stroke="#fbcccc" stroke-miterlimit="10"/>
        <rect x="294" y="350.6" width="12" height="12" fill="#fbcccc" stroke="#fbcccc" stroke-miterlimit="10"/>
        <rect x="278" y="350.6" width="12" height="12" fill="#fbcccc" stroke="#fbcccc" stroke-miterlimit="10"/>
        <rect x="262" y="350.6" width="12" height="12" fill="#fbcccc" stroke="#fbcccc" stroke-miterlimit="10"/>
        <rect x="342" y="366.6" width="12" height="12" fill="#fbcccc" stroke="#fbcccc" stroke-miterlimit="10"/>
        <rect x="326" y="366.6" width="12" height="12" fill="#fbcccc" stroke="#fbcccc" stroke-miterlimit="10"/>
        <rect x="310" y="366.6" width="12" height="12" fill="#fbcccc" stroke="#fbcccc" stroke-miterlimit="10"/>
        <rect x="278" y="366.6" width="12" height="12" fill="#fbcccc" stroke="#fbcccc" stroke-miterlimit="10"/>
        <rect x="262" y="366.6" width="12" height="12" fill="#fbcccc" stroke="#fbcccc" stroke-miterlimit="10"/>
        <rect x="246" y="366.6" width="12" height="12" fill="#fbcccc" stroke="#fbcccc" stroke-miterlimit="10"/>
        <rect x="342" y="382.6" width="12" height="12" fill="#fbcccc" stroke="#fbcccc" stroke-miterlimit="10"/>
        <rect x="326" y="382.6" width="12" height="12" fill="#fbcccc" stroke="#fbcccc" stroke-miterlimit="10"/>
        <rect x="262" y="382.6" width="12" height="12" fill="#fbcccc" stroke="#fbcccc" stroke-miterlimit="10"/>
        <rect x="246" y="382.6" width="12" height="12" fill="#fbcccc" stroke="#fbcccc" stroke-miterlimit="10"/>
        <rect x="230" y="382.6" width="12" height="12" fill="#fbcccc" stroke="#fbcccc" stroke-miterlimit="10"/>
        <rect x="358" y="382.6" width="12" height="12" fill="#fbcccc" stroke="#fbcccc" stroke-miterlimit="10"/>
        <rect x="342" y="398.6" width="12" height="12" fill="#fbcccc" stroke="#fbcccc" stroke-miterlimit="10"/>
        <rect x="246" y="398.6" width="12" height="12" fill="#fbcccc" stroke="#fbcccc" stroke-miterlimit="10"/>
        <rect x="230" y="398.6" width="12" height="12" fill="#fbcccc" stroke="#fbcccc" stroke-miterlimit="10"/>
        <rect x="358" y="398.6" width="12" height="12" fill="#fbcccc" stroke="#fbcccc" stroke-miterlimit="10"/>
      </g>
    </g>
  </g>
</svg>
